<svg xmlns="http://www.w3.org/2000/svg" viewBox="0 0 148.82 125.35"><defs><style>.cls-1{fill:#020102;}.cls-1,.cls-2,.cls-4{stroke:#020102;stroke-miterlimit:10;stroke-width:2px;}.cls-2{fill:#cc89e7;}.cls-3{fill:#c6667d;}.cls-4{fill:none;stroke-linecap:round;}</style></defs><title>abi</title><g id="Capa_2" data-name="Capa 2"><g id="Capa_1-2" data-name="Capa 1"><ellipse class="cls-1" cx="115.16" cy="67.22" rx="30.03" ry="55.04" transform="matrix(0.96, -0.28, 0.28, 0.96, -14.14, 34.63)"/><ellipse class="cls-1" cx="31.79" cy="69.72" rx="55.04" ry="30.03" transform="translate(-41.83 90.99) rotate(-81.6)"/><rect class="cls-2" x="24.79" y="12.44" width="96.19" height="91.13" rx="14.96"/><ellipse class="cls-3" cx="46.97" cy="59.69" rx="9.42" ry="5.77"/><ellipse class="cls-3" cx="96.09" cy="59.69" rx="9.42" ry="5.77"/><path class="cls-4" d="M49.34,56.32c1.69-7.8,6.91-16,11.84.29"/><path class="cls-4" d="M82.83,56.32c1.69-7.8,6.91-16,11.84.29"/><ellipse class="cls-1" cx="49.16" cy="23.47" rx="32.26" ry="18.05" transform="translate(-5.15 27.72) rotate(-30)"/><ellipse class="cls-1" cx="95.97" cy="22.65" rx="18.05" ry="32.26" transform="translate(33.67 99.09) rotate(-64.1)"/></g></g></svg>