<svg xmlns="http://www.w3.org/2000/svg" viewBox="0 0 148.82 127.61"><defs><style>.cls-1{fill:#020102;}.cls-1,.cls-2,.cls-4{stroke:#020102;stroke-miterlimit:10;stroke-width:2px;}.cls-2{fill:#cc89e7;}.cls-3{fill:#c6667d;}.cls-4{fill:none;stroke-linecap:round;}</style></defs><title>abi</title><g id="Capa_2" data-name="Capa 2"><g id="Capa_1-2" data-name="Capa 1"><ellipse class="cls-1" cx="115.16" cy="69.48" rx="30.03" ry="55.04" transform="matrix(0.96, -0.28, 0.28, 0.96, -14.77, 34.72)"/><ellipse class="cls-1" cx="31.79" cy="71.98" rx="55.04" ry="30.03" transform="translate(-44.06 92.91) rotate(-81.6)"/><rect class="cls-2" x="24.79" y="14.7" width="96.19" height="91.13" rx="14.96"/><ellipse class="cls-3" cx="46.97" cy="61.94" rx="9.42" ry="5.77"/><ellipse class="cls-3" cx="96.09" cy="61.94" rx="9.42" ry="5.77"/><path class="cls-4" d="M49.34,58.58c1.69-7.8,6.91-16,11.84.28"/><path class="cls-4" d="M82.83,58.58c1.69-7.8,6.91-16,11.84.28"/><ellipse class="cls-1" cx="45.78" cy="19.87" rx="32.26" ry="11.29" transform="translate(-3.8 25.55) rotate(-30)"/><ellipse class="cls-1" cx="95.97" cy="24.91" rx="18.05" ry="32.26" transform="translate(31.64 100.36) rotate(-64.1)"/></g></g></svg>