<svg xmlns="http://www.w3.org/2000/svg" viewBox="0 0 112.67 118.1"><defs><style>.cls-1{fill:#cc89e7;}.cls-1,.cls-3,.cls-4{stroke:#020102;stroke-miterlimit:10;stroke-width:2px;}.cls-2{fill:#c6667d;}.cls-4{fill:#020102;}</style></defs><title>amos</title><g id="Capa_2" data-name="Capa 2"><g id="Capa_1-2" data-name="Capa 1"><rect class="cls-1" x="8.03" y="25.98" width="96.19" height="91.13" rx="14.96"/><ellipse class="cls-2" cx="30.21" cy="73.22" rx="9.42" ry="5.77"/><ellipse class="cls-2" cx="79.33" cy="73.22" rx="9.42" ry="5.77"/><ellipse class="cls-3" cx="70.81" cy="62.83" rx="3.46" ry="6.91"/><ellipse class="cls-3" cx="39.65" cy="62.83" rx="3.46" ry="6.91"/><ellipse class="cls-4" cx="20.12" cy="33.08" rx="15.87" ry="10.88"/><ellipse class="cls-4" cx="16.87" cy="33.95" rx="15.87" ry="10.88"/><ellipse class="cls-4" cx="37.87" cy="25.2" rx="15.87" ry="10.88"/><ellipse class="cls-4" cx="24.37" cy="20.58" rx="15.87" ry="10.88"/><ellipse class="cls-4" cx="44.87" cy="35.95" rx="15.87" ry="10.88"/><ellipse class="cls-4" cx="57.74" cy="20.58" rx="15.87" ry="10.88"/><ellipse class="cls-4" cx="61.74" cy="32.95" rx="15.87" ry="10.88"/><ellipse class="cls-4" cx="77.12" cy="23.95" rx="15.87" ry="10.88"/><ellipse class="cls-4" cx="89.62" cy="36.7" rx="15.87" ry="10.88"/><ellipse class="cls-4" cx="94.62" cy="23.7" rx="10.88" ry="15.87" transform="translate(48.29 109.54) rotate(-75.71)"/><ellipse class="cls-4" cx="96.12" cy="42.45" rx="10.88" ry="15.87" transform="translate(28.99 123.29) rotate(-74.12)"/><ellipse class="cls-4" cx="44.62" cy="12.33" rx="10.88" ry="15.87" transform="translate(20.55 51.87) rotate(-74.12)"/><ellipse class="cls-4" cx="66.49" cy="13.95" rx="10.88" ry="15.87" transform="translate(34.88 74.09) rotate(-74.12)"/></g></g></svg>