<svg xmlns="http://www.w3.org/2000/svg" viewBox="0 0 83.71 135.08"><defs><style>.cls-1,.cls-5{fill:#a03c8d;}.cls-1{stroke:#000;}.cls-1,.cls-2,.cls-3,.cls-4{stroke-miterlimit:10;}.cls-1,.cls-2,.cls-3{stroke-width:2px;}.cls-2{fill:#d687ce;}.cls-2,.cls-3,.cls-4{stroke:#020102;}.cls-3,.cls-4{fill:none;stroke-linecap:round;}</style></defs><title>Recurso 2</title><g id="Capa_2" data-name="Capa 2"><g id="Capa_1-2" data-name="Capa 1"><path class="cls-1" d="M81.8,60.23,50,5.1a6.7,6.7,0,0,0-11.61,0L6.53,60.23a6.71,6.71,0,0,0,5.81,10.06H22.42v55.35a8.43,8.43,0,0,0,8.43,8.44H58.6A8.44,8.44,0,0,0,67,125.64V70.29H76A6.71,6.71,0,0,0,81.8,60.23Z"/><path class="cls-2" d="M77.18,59.48,45.35,4.35a6.71,6.71,0,0,0-11.62,0L1.91,59.48A6.71,6.71,0,0,0,7.72,69.54H17.79v55.35a8.44,8.44,0,0,0,8.44,8.44H54a8.44,8.44,0,0,0,8.44-8.44V69.54h9A6.71,6.71,0,0,0,77.18,59.48Z"/><path class="cls-3" d="M22.86,37.66c1.06-3.78,4.34-7.75,7.43.14"/><path class="cls-4" d="M40.23,41.64c-.48,2-3.3,3.72-5-.3"/><path class="cls-3" d="M43.86,37.66c1.06-3.78,4.34-7.75,7.43.14"/><circle class="cls-5" cx="21.4" cy="41.94" r="3.27"/><circle class="cls-5" cx="52.4" cy="41.94" r="3.27"/></g></g></svg>