<svg xmlns="http://www.w3.org/2000/svg" viewBox="0 0 98.19 122.24"><defs><style>.cls-1{fill:#cc89e7;}.cls-1,.cls-2,.cls-6{stroke:#020102;}.cls-1,.cls-2,.cls-5,.cls-6{stroke-miterlimit:10;stroke-width:2px;}.cls-2{fill:#7a4aab;}.cls-3{fill:#c6667d;}.cls-4,.cls-5{fill:#0a090a;}.cls-5{stroke:#0a090a;stroke-linecap:round;}</style></defs><title>boxCircle</title><g id="Capa_2" data-name="Capa 2"><g id="Capa_1-2" data-name="Capa 1"><rect class="cls-1" x="1" y="30.12" width="96.19" height="91.13" rx="14.96"/><polygon class="cls-2" points="22.39 29.32 12.19 29.32 17.29 20.48 22.39 11.64 27.5 20.48 32.6 29.32 22.39 29.32"/><polygon class="cls-2" points="74.83 29.79 64.63 29.79 69.73 20.95 74.83 12.11 79.93 20.95 85.03 29.79 74.83 29.79"/><polygon class="cls-2" points="49.09 29.69 33.11 29.69 41.1 15.85 49.09 2 57.09 15.85 65.08 29.69 49.09 29.69"/><ellipse class="cls-3" cx="23.77" cy="77.67" rx="9.42" ry="5.77"/><ellipse class="cls-3" cx="72.89" cy="76.17" rx="9.42" ry="5.77"/><path class="cls-4" d="M51.56,74.34H46.91c-7,0-11.4,4.84-10,10,0,0,3.71,12.81,9,12.78l6.17.07c5,0,9.13-12.57,9.13-12.57C63,79.35,58.78,74.34,51.56,74.34Z"/><line class="cls-5" x1="30.19" y1="55.68" x2="40.88" y2="64.87"/><line class="cls-5" x1="29.48" y1="73.14" x2="40.9" y2="64.88"/><line class="cls-5" x1="66.96" y1="74.14" x2="56.28" y2="64.95"/><line class="cls-5" x1="67.67" y1="56.68" x2="56.25" y2="64.94"/><path class="cls-6" d="M58,88.59c-.84,3.52-4.9,9.62-8.43,9.75s-7.18-3.51-8.72-7.73C39.54,87,45.41,77.8,48.94,77.67S58.94,84.83,58,88.59Z"/></g></g></svg>