<svg xmlns="http://www.w3.org/2000/svg" viewBox="0 0 67.94 66.81"><defs><style>.cls-1{fill:#a03c8d;stroke:#000;}.cls-1,.cls-2{stroke-miterlimit:10;stroke-width:2px;}.cls-2{fill:#d687ce;stroke:#020102;}</style></defs><title>close</title><g id="Capa_2" data-name="Capa 2"><g id="Capa_1-2" data-name="Capa 1"><path class="cls-1" d="M60.6,45.44,47.13,32,60,19.06a10.63,10.63,0,0,0,0-15h0a10.62,10.62,0,0,0-15,0L32.16,17,19.62,4.46a10.59,10.59,0,0,0-15,15L17.18,32,4.09,45.06a10.59,10.59,0,0,0,15,15l13.1-13.1L45.63,60.41a10.59,10.59,0,0,0,15-15Z"/><path class="cls-2" d="M63.89,48,50.62,34.74,63.34,22a10.47,10.47,0,0,0,0-14.76h0a10.47,10.47,0,0,0-14.76,0L35.86,20,23.51,7.63A10.43,10.43,0,0,0,8.75,22.38L21.11,34.74,8.2,47.64A10.44,10.44,0,0,0,23,62.4l12.9-12.91L49.14,62.77A10.43,10.43,0,0,0,63.89,48Z"/></g></g></svg>