<svg xmlns="http://www.w3.org/2000/svg" viewBox="0 0 67.22 65.81"><defs><style>.cls-1{fill:#a03c8d;stroke:#000;}.cls-1,.cls-2{stroke-miterlimit:10;stroke-width:2px;}.cls-2{fill:#d687ce;stroke:#020102;}</style></defs><title>cross</title><g id="Capa_2" data-name="Capa 2"><g id="Capa_1-2" data-name="Capa 1"><path class="cls-1" d="M60.6,45.44,47.13,32,60,19.06a10.63,10.63,0,0,0,0-15h0a10.62,10.62,0,0,0-15,0L32.16,17,19.62,4.46a10.59,10.59,0,0,0-15,15L17.18,32,4.09,45.06a10.59,10.59,0,0,0,15,15l13.1-13.1L45.63,60.41a10.59,10.59,0,0,0,15-15Z"/><path class="cls-2" d="M63.18,47,49.9,33.74,62.62,21a10.47,10.47,0,0,0,0-14.76h0a10.45,10.45,0,0,0-14.75,0L35.14,19,22.79,6.63A10.43,10.43,0,0,0,8,21.38L20.39,33.74,7.48,46.64A10.44,10.44,0,0,0,22.24,61.4l12.9-12.91L48.42,61.77A10.44,10.44,0,0,0,63.18,47Z"/></g></g></svg>