<svg xmlns="http://www.w3.org/2000/svg" viewBox="0 0 136.32 109.92"><defs><style>.cls-1{fill:#cfa43d;stroke:#000;}.cls-1,.cls-2,.cls-3,.cls-6{stroke-miterlimit:10;stroke-width:2px;}.cls-2{fill:#e5dc6d;}.cls-2,.cls-3,.cls-6{stroke:#020102;}.cls-3,.cls-4{fill:#7a4aab;}.cls-5{fill:#c6667d;}</style></defs><title>fly</title><g id="Capa_2" data-name="Capa 2"><g id="Capa_1-2" data-name="Capa 1"><path class="cls-1" d="M92.39,69.56c0-.07,0-.13,0-.19C91.29,62,95.54,52.84,103.71,46.54c10.53-8.12,23.56-8.44,29.11-.74,3.5,4.85,3.19,11.72-.13,18.18a9.91,9.91,0,0,1,2,5.63c.14,7.56-9.22,13.67-20.89,13.65S92.53,77.11,92.39,69.56Z"/><path class="cls-1" d="M44.87,72.57c0-.06,0-.12,0-.18,1.89-7.23-1.6-16.88-9.44-24.2C25.36,38.78,11.89,36.82,5.36,43.82,1.26,48.22.89,55.11,3.68,62a9.56,9.56,0,0,0-2.62,5.38c-.9,7.52,8.18,14.78,20.28,16.23S44,80.09,44.87,72.57Z"/><circle class="cls-2" cx="67.92" cy="64.2" r="44.72"/><polygon class="cls-3" points="67.92 19.67 57.72 19.67 62.82 10.84 67.92 2 73.03 10.84 78.13 19.67 67.92 19.67"/><ellipse class="cls-3" cx="68.15" cy="19.95" rx="8.44" ry="2.72"/><path class="cls-4" d="M76.15,18.69c-.09,2.06-3.61,3.18-8.2,3.18s-8.31-1.41-8.31-3.16,3.72-3.17,8.31-3.17S76.23,16.77,76.15,18.69Z"/><polygon class="cls-3" points="99.35 33.64 92.46 26.11 102.43 23.91 112.39 21.71 109.31 31.44 106.23 41.17 99.35 33.64"/><ellipse class="cls-3" cx="99.3" cy="33.99" rx="2.72" ry="8.44" transform="translate(3.07 75.9) rotate(-42.43)"/><path class="cls-4" d="M105.62,39c-1.58,1.33-4.78-.51-7.88-3.9s-4.56-7.09-3.27-8.27,4.85.62,7.94,4S107.1,37.8,105.62,39Z"/><polygon class="cls-3" points="35.68 33.64 28.29 40.67 25.89 30.75 23.5 20.83 33.29 23.72 43.07 26.6 35.68 33.64"/><ellipse class="cls-3" cx="36.03" cy="33.68" rx="8.44" ry="2.72" transform="translate(-13.29 34.11) rotate(-43.56)"/><path class="cls-4" d="M41,27.26c1.35,1.55-.42,4.79-3.75,8s-7,4.7-8.2,3.43.52-4.85,3.84-8S39.69,25.81,41,27.26Z"/><ellipse class="cls-5" cx="88.9" cy="68.16" rx="5.54" ry="3.39"/><circle class="cls-6" cx="83.81" cy="61" r="4.63"/><ellipse class="cls-5" cx="47.47" cy="67.37" rx="5.54" ry="3.39"/><circle class="cls-6" cx="52.09" cy="61" r="4.62"/></g></g></svg>