<svg xmlns="http://www.w3.org/2000/svg" viewBox="0 0 91.75 109.92"><defs><style>.cls-1{fill:#e5dc6d;}.cls-1,.cls-2,.cls-5{stroke:#020102;stroke-miterlimit:10;stroke-width:2px;}.cls-2,.cls-3{fill:#7a4aab;}.cls-4{fill:#c6667d;}</style></defs><title>flyHead</title><g id="Capa_2" data-name="Capa 2"><g id="Capa_1-2" data-name="Capa 1"><circle class="cls-1" cx="45.8" cy="64.2" r="44.72"/><polygon class="cls-2" points="45.8 19.67 35.6 19.67 40.7 10.84 45.8 2 50.9 10.84 56.01 19.67 45.8 19.67"/><ellipse class="cls-2" cx="46.03" cy="19.95" rx="8.44" ry="2.72"/><path class="cls-3" d="M54,18.69c-.08,2.06-3.6,3.18-8.19,3.18s-8.31-1.41-8.31-3.16,3.72-3.17,8.31-3.17S54.11,16.77,54,18.69Z"/><polygon class="cls-2" points="77.23 33.64 70.34 26.11 80.31 23.91 90.27 21.71 87.19 31.44 84.11 41.17 77.23 33.64"/><ellipse class="cls-2" cx="77.17" cy="33.99" rx="2.72" ry="8.44" transform="translate(-2.72 60.98) rotate(-42.43)"/><path class="cls-3" d="M83.5,39c-1.58,1.33-4.78-.51-7.88-3.9s-4.56-7.09-3.27-8.27,4.85.62,7.94,4S85,37.8,83.5,39Z"/><polygon class="cls-2" points="13.56 33.64 6.16 40.67 3.77 30.75 1.38 20.83 11.16 23.72 20.95 26.6 13.56 33.64"/><ellipse class="cls-2" cx="13.91" cy="33.68" rx="8.44" ry="2.72" transform="translate(-19.38 18.86) rotate(-43.56)"/><path class="cls-3" d="M18.84,27.26c1.35,1.55-.42,4.79-3.75,8s-7,4.7-8.2,3.43.52-4.85,3.84-8S17.57,25.81,18.84,27.26Z"/><ellipse class="cls-4" cx="66.78" cy="68.16" rx="5.54" ry="3.39"/><circle class="cls-5" cx="61.69" cy="61" r="4.63"/><ellipse class="cls-4" cx="25.35" cy="67.37" rx="5.54" ry="3.39"/><circle class="cls-5" cx="29.97" cy="61" r="4.62"/></g></g></svg>