<svg width="191" height="198" viewBox="0 0 191 198" fill="none" xmlns="http://www.w3.org/2000/svg">
<g filter="url(#filter0_d_21_7)">
<path d="M95.2692 179.538C144.019 179.538 183.538 140.019 183.538 91.2692C183.538 42.5195 144.019 3 95.2692 3C46.5195 3 7 42.5195 7 91.2692C7 140.019 46.5195 179.538 95.2692 179.538Z" stroke="#E16CEA" stroke-width="6" stroke-miterlimit="10" shape-rendering="crispEdges"/>
</g>
<g filter="url(#filter1_d_21_7)">
<path d="M91.2227 31.4258C90.9492 35.7096 90.6986 39.9479 90.4707 44.1406C90.2428 48.3333 89.9466 52.5716 89.582 56.8555L60.5977 58.3594V66.9727H85.7539L84.3867 88.1641L60.4609 88.8477L60.5977 129.316L26.0078 130L28.1953 31.4258H91.2227Z" fill="#E16CEA"/>
</g>
<g filter="url(#filter2_d_21_7)">
<path d="M170.057 131.664C170.057 135.447 169.35 138.705 167.938 141.439C166.57 144.174 164.725 146.498 162.4 148.412C160.076 150.326 157.387 151.898 154.334 153.129C151.326 154.314 148.182 155.248 144.9 155.932C141.619 156.615 138.315 157.071 134.988 157.299C131.707 157.527 128.631 157.641 125.76 157.641C122.934 157.641 119.995 157.527 116.941 157.299C113.934 157.117 110.926 156.775 107.918 156.273C104.91 155.772 101.948 155.111 99.0312 154.291C96.1146 153.425 93.3574 152.354 90.7598 151.078L90.623 63.0312C93.1751 61.9831 95.8867 61.0488 98.7578 60.2285C101.629 59.3626 104.546 58.6562 107.508 58.1094C110.516 57.5169 113.501 57.084 116.463 56.8105C119.425 56.4915 122.296 56.332 125.076 56.332C128.312 56.332 131.57 56.5371 134.852 56.9473C138.178 57.3574 141.368 58.041 144.422 58.998C147.475 59.9551 150.324 61.2083 152.967 62.7578C155.61 64.2617 157.911 66.1302 159.871 68.3633C161.876 70.5964 163.426 73.194 164.52 76.1562C165.659 79.1185 166.229 82.5365 166.229 86.4102C166.229 88.9622 165.864 91.3548 165.135 93.5879C164.406 95.821 163.357 97.8262 161.99 99.6035C160.623 101.381 158.96 102.908 157 104.184C155.04 105.414 152.83 106.326 150.369 106.918C153.331 107.693 156.02 108.832 158.436 110.336C160.896 111.84 162.97 113.663 164.656 115.805C166.388 117.947 167.71 120.362 168.621 123.051C169.578 125.74 170.057 128.611 170.057 131.664ZM135.33 92.6992C135.33 91.3776 135.057 90.2611 134.51 89.3496C133.963 88.3926 133.279 87.6178 132.459 87.0254C131.684 86.4329 130.818 86 129.861 85.7266C128.95 85.4531 128.13 85.3164 127.4 85.3164C126.489 85.3164 125.6 85.4531 124.734 85.7266C123.868 86 123.025 86.319 122.205 86.6836L121.795 101.859C122.843 101.859 124.142 101.768 125.691 101.586C127.241 101.404 128.722 101.016 130.135 100.424C131.593 99.7858 132.824 98.8743 133.826 97.6895C134.829 96.459 135.33 94.7956 135.33 92.6992ZM125.623 114.984C124.301 114.984 123.025 115.121 121.795 115.395L121.521 130.98C122.205 131.117 122.866 131.254 123.504 131.391C124.188 131.482 124.848 131.527 125.486 131.527C126.443 131.527 127.492 131.436 128.631 131.254C129.77 131.026 130.841 130.616 131.844 130.023C132.846 129.385 133.667 128.542 134.305 127.494C134.988 126.446 135.33 125.056 135.33 123.324C135.33 121.592 134.988 120.18 134.305 119.086C133.667 117.992 132.869 117.149 131.912 116.557C130.955 115.919 129.907 115.508 128.768 115.326C127.628 115.098 126.58 114.984 125.623 114.984Z" fill="#E16CEA"/>
</g>
<defs>
<filter id="filter0_d_21_7" x="0" y="0" width="190.538" height="190.538" filterUnits="userSpaceOnUse" color-interpolation-filters="sRGB">
<feFlood flood-opacity="0" result="BackgroundImageFix"/>
<feColorMatrix in="SourceAlpha" type="matrix" values="0 0 0 0 0 0 0 0 0 0 0 0 0 0 0 0 0 0 127 0" result="hardAlpha"/>
<feOffset dy="4"/>
<feGaussianBlur stdDeviation="2"/>
<feComposite in2="hardAlpha" operator="out"/>
<feColorMatrix type="matrix" values="0 0 0 0 0.686275 0 0 0 0 0.298039 0 0 0 0 0.717647 0 0 0 1 0"/>
<feBlend mode="normal" in2="BackgroundImageFix" result="effect1_dropShadow_21_7"/>
<feBlend mode="normal" in="SourceGraphic" in2="effect1_dropShadow_21_7" result="shape"/>
</filter>
<filter id="filter1_d_21_7" x="22.0078" y="31.4258" width="73.2148" height="106.574" filterUnits="userSpaceOnUse" color-interpolation-filters="sRGB">
<feFlood flood-opacity="0" result="BackgroundImageFix"/>
<feColorMatrix in="SourceAlpha" type="matrix" values="0 0 0 0 0 0 0 0 0 0 0 0 0 0 0 0 0 0 127 0" result="hardAlpha"/>
<feOffset dy="4"/>
<feGaussianBlur stdDeviation="2"/>
<feComposite in2="hardAlpha" operator="out"/>
<feColorMatrix type="matrix" values="0 0 0 0 0.686275 0 0 0 0 0.309804 0 0 0 0 0.717647 0 0 0 1 0"/>
<feBlend mode="normal" in2="BackgroundImageFix" result="effect1_dropShadow_21_7"/>
<feBlend mode="normal" in="SourceGraphic" in2="effect1_dropShadow_21_7" result="shape"/>
</filter>
<filter id="filter2_d_21_7" x="86.623" y="56.332" width="87.4336" height="109.309" filterUnits="userSpaceOnUse" color-interpolation-filters="sRGB">
<feFlood flood-opacity="0" result="BackgroundImageFix"/>
<feColorMatrix in="SourceAlpha" type="matrix" values="0 0 0 0 0 0 0 0 0 0 0 0 0 0 0 0 0 0 127 0" result="hardAlpha"/>
<feOffset dy="4"/>
<feGaussianBlur stdDeviation="2"/>
<feComposite in2="hardAlpha" operator="out"/>
<feColorMatrix type="matrix" values="0 0 0 0 0.705882 0 0 0 0 0.352941 0 0 0 0 0.729412 0 0 0 1 0"/>
<feBlend mode="normal" in2="BackgroundImageFix" result="effect1_dropShadow_21_7"/>
<feBlend mode="normal" in="SourceGraphic" in2="effect1_dropShadow_21_7" result="shape"/>
</filter>
</defs>
</svg>
