<svg xmlns="http://www.w3.org/2000/svg" viewBox="0 0 120.32 103.23"><defs><style>.cls-1{fill:#020102;}.cls-1,.cls-2,.cls-4{stroke:#020102;stroke-miterlimit:10;stroke-width:2px;}.cls-2{fill:#cc89e7;}.cls-3{fill:#c6667d;}.cls-4{fill:none;stroke-linecap:round;}</style></defs><title>isaac</title><g id="Capa_2" data-name="Capa 2"><g id="Capa_1-2" data-name="Capa 1"><ellipse class="cls-1" cx="15.27" cy="38.77" rx="15.87" ry="10.88" transform="translate(-20.24 16.97) rotate(-36.95)"/><rect class="cls-2" x="19.68" y="11.1" width="96.19" height="91.13" rx="14.96"/><ellipse class="cls-3" cx="41.86" cy="58.34" rx="9.42" ry="5.77"/><ellipse class="cls-3" cx="93.98" cy="58.34" rx="9.42" ry="5.77"/><path class="cls-4" d="M72.57,73.78c-.82,3.84-3.85,8-7.42.32"/><ellipse class="cls-1" cx="103.77" cy="15.7" rx="10.88" ry="15.87" transform="translate(60.27 111.22) rotate(-74.12)"/><ellipse class="cls-1" cx="52.52" cy="12.33" rx="10.88" ry="15.87" transform="translate(26.29 59.47) rotate(-74.12)"/><ellipse class="cls-1" cx="34.83" cy="14.27" rx="15.87" ry="10.88" transform="translate(-1.06 2.93) rotate(-4.74)"/><ellipse class="cls-1" cx="82.65" cy="14.73" rx="10.88" ry="15.87" transform="translate(45.87 90.2) rotate(-74.12)"/><path class="cls-4" d="M79.84,51.85c3.45-7.59,11.61-14.84,15.53,2.7"/><path class="cls-4" d="M42.46,53.3c1.79-8.14,8.26-16.94,15.75-.6"/></g></g></svg>