<svg xmlns="http://www.w3.org/2000/svg" viewBox="0 0 266.08 152.92"><defs><style>.cls-1{fill:#9821a5;}.cls-2{fill:none;stroke:#000;stroke-miterlimit:10;stroke-width:3px;}.cls-3{fill:#d687ce;}</style></defs><title>logo2</title><g id="Capa_2" data-name="Capa 2"><g id="Capa_1-2" data-name="Capa 1"><path class="cls-1" d="M52.88,1.87q-.29,4.41-.52,8.72c-.16,2.88-.36,5.78-.61,8.72l-19.87,1v5.91H49.13l-.94,14.53-16.41.47L31.88,69l-23.72.47,1.5-67.6ZM96.47,42.75l-2,20.81L55,66.65q.28-16.35.61-32.53t.89-32.53H80.91q-1.08,10.27-2.06,20.53T77.44,42.75c1.47.06,2.92.09,4.36.09h4.36c1.75,0,3.47,0,5.15-.05S94.72,42.75,96.47,42.75ZM151,31.59a58.91,58.91,0,0,1-.57,8.16q-8,.51-15.93,1.69l-15.85,2.25a11.71,11.71,0,0,0,3.8,5.39,10,10,0,0,0,6.23,2,13.45,13.45,0,0,0,4.08-.7,34.72,34.72,0,0,0,4.45-1.74c1.47-.71,2.88-1.48,4.22-2.29s2.5-1.55,3.47-2.21l-2.25,21.29a20.9,20.9,0,0,1-4,2.39,27.54,27.54,0,0,1-4.41,1.59,33.6,33.6,0,0,1-4.64.89,37.93,37.93,0,0,1-4.59.28,27.16,27.16,0,0,1-8.49-1.26,25.86,25.86,0,0,1-7-3.52,27,27,0,0,1-5.44-5.39,31.3,31.3,0,0,1-3.89-6.75,39.15,39.15,0,0,1-2.34-7.73,43,43,0,0,1-.8-8.25,48.44,48.44,0,0,1,.8-8.72,43.67,43.67,0,0,1,2.39-8.39,36.06,36.06,0,0,1,4.08-7.46,29.25,29.25,0,0,1,5.76-6,25.53,25.53,0,0,1,7.41-4,27.7,27.7,0,0,1,9.18-1.46,23.36,23.36,0,0,1,7.6,1.17A20.23,20.23,0,0,1,140.44,6a21.1,21.1,0,0,1,4.69,4.83A26.89,26.89,0,0,1,148.41,17,34.67,34.67,0,0,1,150.33,24,43,43,0,0,1,151,31.59Zm-18.75-2.44a13.06,13.06,0,0,0-.29-2.67A8.12,8.12,0,0,0,131,24a5.26,5.26,0,0,0-1.64-1.83,4.28,4.28,0,0,0-2.58-.75,5.67,5.67,0,0,0-3.33,1A9.4,9.4,0,0,0,121,24.94a14.7,14.7,0,0,0-1.68,3.28,24.63,24.63,0,0,0-1,3.28l13.88-1.31Zm63.32,1.69v5.49a53.36,53.36,0,0,1-.28,5.48,40.42,40.42,0,0,1-2.53,11.11,30.06,30.06,0,0,1-5.48,9.14,24.73,24.73,0,0,1-8.35,6.23,26.26,26.26,0,0,1-11.29,2.3,34.23,34.23,0,0,1-5.21-.42A35.8,35.8,0,0,1,152,66.84a22.08,22.08,0,0,1-4.27-2.9l2.91-19.41a24.78,24.78,0,0,0,6.14,4.36,16.65,16.65,0,0,0,7.36,1.64,11.25,11.25,0,0,0,4.36-.75,8.2,8.2,0,0,0,2.95-2.06,9.76,9.76,0,0,0,1.83-3,16.16,16.16,0,0,0,1-3.75,29.35,29.35,0,0,0,.38-4.13q.09-2.1.09-4.17A146,146,0,0,0,174,17.81Q173.25,10.4,172.69,3l21.47-1.41Q195.57,16.22,195.56,30.84Zm56.49.75a60.48,60.48,0,0,1-.56,8.16q-8,.51-15.94,1.69L219.7,43.69a11.79,11.79,0,0,0,3.8,5.39,10,10,0,0,0,6.24,2,13.34,13.34,0,0,0,4.07-.7,35.43,35.43,0,0,0,4.46-1.74c1.47-.71,2.87-1.48,4.22-2.29s2.5-1.55,3.46-2.21L243.7,65.44a20.6,20.6,0,0,1-4,2.39,27.19,27.19,0,0,1-4.41,1.59,33.32,33.32,0,0,1-4.64.89,37.93,37.93,0,0,1-4.59.28,27.1,27.1,0,0,1-8.48-1.26,25.78,25.78,0,0,1-7-3.52,27.23,27.23,0,0,1-5.44-5.39,31.3,31.3,0,0,1-3.89-6.75,39.15,39.15,0,0,1-2.34-7.73,43,43,0,0,1-.8-8.25,48.44,48.44,0,0,1,.8-8.72,44.4,44.4,0,0,1,2.39-8.39,36.06,36.06,0,0,1,4.08-7.46,29.51,29.51,0,0,1,5.76-6,25.53,25.53,0,0,1,7.41-4,27.72,27.72,0,0,1,9.19-1.46,23.34,23.34,0,0,1,7.59,1.17A20.23,20.23,0,0,1,241.5,6a20.89,20.89,0,0,1,4.69,4.83A26.51,26.51,0,0,1,249.47,17,33.43,33.43,0,0,1,251.39,24,43,43,0,0,1,252.05,31.59ZM233.3,29.15a13.77,13.77,0,0,0-.28-2.67,8.13,8.13,0,0,0-.94-2.53,5.16,5.16,0,0,0-1.64-1.83,4.28,4.28,0,0,0-2.58-.75,5.67,5.67,0,0,0-3.33,1,9.37,9.37,0,0,0-2.43,2.54,14.73,14.73,0,0,0-1.69,3.28,24.63,24.63,0,0,0-1,3.28l13.88-1.31ZM56,132.78a14.4,14.4,0,0,1-1.45,6.7,14.56,14.56,0,0,1-3.8,4.78,20.91,20.91,0,0,1-5.53,3.24,40,40,0,0,1-6.47,1.92,50.54,50.54,0,0,1-6.8.94q-3.37.22-6.32.23t-6.05-.23a59.24,59.24,0,0,1-6.19-.71,54.68,54.68,0,0,1-6.09-1.36,35.29,35.29,0,0,1-5.67-2.2L1.5,85.72a54.4,54.4,0,0,1,5.58-1.93,58.24,58.24,0,0,1,6-1.45q3.09-.6,6.14-.89a54.86,54.86,0,0,1,5.91-.33,54.17,54.17,0,0,1,6.7.42A37.43,37.43,0,0,1,38.39,83a28.38,28.38,0,0,1,5.86,2.58A18.42,18.42,0,0,1,49,89.37a16.52,16.52,0,0,1,3.18,5.35,19.5,19.5,0,0,1,1.18,7,15.75,15.75,0,0,1-.75,4.92,13.5,13.5,0,0,1-2.16,4.12A13.93,13.93,0,0,1,47,113.94a15.4,15.4,0,0,1-4.55,1.87A19.86,19.86,0,0,1,48,118.15a16.32,16.32,0,0,1,7,8.72A17.7,17.7,0,0,1,56,132.78ZM32.16,106.06a4.45,4.45,0,0,0-.56-2.3,5.17,5.17,0,0,0-1.41-1.59,5.32,5.32,0,0,0-1.78-.89,5.89,5.89,0,0,0-1.69-.28,6,6,0,0,0-1.83.28,17.13,17.13,0,0,0-1.73.66l-.28,10.4a22.43,22.43,0,0,0,2.67-.19,11.32,11.32,0,0,0,3.05-.79,7,7,0,0,0,2.53-1.88A5.28,5.28,0,0,0,32.16,106.06ZM25.5,121.34a12.52,12.52,0,0,0-2.62.28l-.19,10.69,1.36.28a10.76,10.76,0,0,0,1.36.1,14.35,14.35,0,0,0,2.15-.19,7,7,0,0,0,2.21-.85,5.14,5.14,0,0,0,2.39-4.59,5.41,5.41,0,0,0-.71-2.91,4.8,4.8,0,0,0-1.64-1.73,5.21,5.21,0,0,0-2.15-.84A10.8,10.8,0,0,0,25.5,121.34Zm77.39-39.47q-.28,4.41-.51,8.72c-.16,2.88-.36,5.78-.61,8.72l-19.88,1-.47,5.91h14l-1,14.53-14.06.47-.47,6.84H99.7c-.18,3.44-.39,6.86-.6,10.27s-.36,6.76-.52,10.17l-40.41.94,1.5-67.6Zm60.75,63.57-23.25,3-2.81-10.6H126.89l-2.34,10.6-23.91-2.35L119.3,83.65l26.06-1.31ZM135.89,123.5l-3.56-16.31-3.47,16.31Zm72.75-41.06-.47,19.87-14,.56-3.56,44.44-19.78,1L171,103.9l-14,.75.56-22.12Zm50.58,42.09A26.39,26.39,0,0,1,257,135.78a22.15,22.15,0,0,1-6.09,8,26,26,0,0,1-9,4.78,37.53,37.53,0,0,1-11.11,1.59,23.41,23.41,0,0,1-5.06-.61c-1.81-.4-3.66-.9-5.53-1.5s-3.69-1.28-5.44-2-3.25-1.39-4.59-2l2.06-19.31a33.43,33.43,0,0,0,8.81,3.65,39,39,0,0,0,9.56,1.22c.6,0,1.32,0,2.16-.05a11.36,11.36,0,0,0,2.39-.42,5.42,5.42,0,0,0,2-1.08,2.53,2.53,0,0,0,.8-2,2.13,2.13,0,0,0-.57-1.5,3.79,3.79,0,0,0-1.45-1,7.47,7.47,0,0,0-2-.61,17.48,17.48,0,0,0-2.2-.33q-1.08-.09-2-.09h-1.5a18.64,18.64,0,0,1-7.36-1.41,17.21,17.21,0,0,1-5.68-3.89,18.28,18.28,0,0,1-3.65-6,21,21,0,0,1-1.31-7.5,21.58,21.58,0,0,1,2.2-9.89,23.14,23.14,0,0,1,5.95-7.46,27,27,0,0,1,8.58-4.73,30.67,30.67,0,0,1,10-1.64c1.54,0,3.11.06,4.74.19a41.29,41.29,0,0,1,4.83.56,44.61,44.61,0,0,1,4.73,1.08,26.68,26.68,0,0,1,4.36,1.64l-1.78,19a54.25,54.25,0,0,0-6.7-1.78,32.18,32.18,0,0,0-6.8-.75c-.41,0-.94,0-1.59,0a16.35,16.35,0,0,0-2,.14,20.44,20.44,0,0,0-2.11.33,8.32,8.32,0,0,0-1.92.66,3.46,3.46,0,0,0-1.36,1,2.26,2.26,0,0,0-.47,1.55,2.33,2.33,0,0,0,.75,1.68,5.86,5.86,0,0,0,1.88,1,15.59,15.59,0,0,0,2.53.47c.93.09,1.86.15,2.76.18h2.53a12.65,12.65,0,0,1,1.93,0,19.12,19.12,0,0,1,6.75,1.6,15.31,15.31,0,0,1,5.06,3.6,14.88,14.88,0,0,1,3.19,5.4A19.87,19.87,0,0,1,259.22,124.53Z"/><path class="cls-2" d="M52.88,1.87q-.29,4.41-.52,8.72c-.16,2.88-.36,5.78-.61,8.72l-19.87,1v5.91H49.13l-.94,14.53-16.41.47L31.88,69l-23.72.47,1.5-67.6ZM96.47,42.75l-2,20.81L55,66.65q.28-16.35.61-32.53t.89-32.53H80.91q-1.08,10.27-2.06,20.53T77.44,42.75c1.47.06,2.92.09,4.36.09h4.36c1.75,0,3.47,0,5.15-.05S94.72,42.75,96.47,42.75ZM151,31.59a58.91,58.91,0,0,1-.57,8.16q-8,.51-15.93,1.69l-15.85,2.25a11.71,11.71,0,0,0,3.8,5.39,10,10,0,0,0,6.23,2,13.45,13.45,0,0,0,4.08-.7,34.72,34.72,0,0,0,4.45-1.74c1.47-.71,2.88-1.48,4.22-2.29s2.5-1.55,3.47-2.21l-2.25,21.29a20.9,20.9,0,0,1-4,2.39,27.54,27.54,0,0,1-4.41,1.59,33.6,33.6,0,0,1-4.64.89,37.93,37.93,0,0,1-4.59.28,27.16,27.16,0,0,1-8.49-1.26,25.86,25.86,0,0,1-7-3.52,27,27,0,0,1-5.44-5.39,31.3,31.3,0,0,1-3.89-6.75,39.15,39.15,0,0,1-2.34-7.73,43,43,0,0,1-.8-8.25,48.44,48.44,0,0,1,.8-8.72,43.67,43.67,0,0,1,2.39-8.39,36.06,36.06,0,0,1,4.08-7.46,29.25,29.25,0,0,1,5.76-6,25.53,25.53,0,0,1,7.41-4,27.7,27.7,0,0,1,9.18-1.46,23.36,23.36,0,0,1,7.6,1.17A20.23,20.23,0,0,1,140.44,6a21.1,21.1,0,0,1,4.69,4.83A26.89,26.89,0,0,1,148.41,17,34.67,34.67,0,0,1,150.33,24,43,43,0,0,1,151,31.59Zm-18.75-2.44a13.06,13.06,0,0,0-.29-2.67A8.12,8.12,0,0,0,131,24a5.26,5.26,0,0,0-1.64-1.83,4.28,4.28,0,0,0-2.58-.75,5.67,5.67,0,0,0-3.33,1A9.4,9.4,0,0,0,121,24.94a14.7,14.7,0,0,0-1.68,3.28,24.63,24.63,0,0,0-1,3.28l13.88-1.31Zm63.32,1.69v5.49a53.36,53.36,0,0,1-.28,5.48,40.42,40.42,0,0,1-2.53,11.11,30.06,30.06,0,0,1-5.48,9.14,24.73,24.73,0,0,1-8.35,6.23,26.26,26.26,0,0,1-11.29,2.3,34.23,34.23,0,0,1-5.21-.42A35.8,35.8,0,0,1,152,66.84a22.08,22.08,0,0,1-4.27-2.9l2.91-19.41a24.78,24.78,0,0,0,6.14,4.36,16.65,16.65,0,0,0,7.36,1.64,11.25,11.25,0,0,0,4.36-.75,8.2,8.2,0,0,0,2.95-2.06,9.76,9.76,0,0,0,1.83-3,16.16,16.16,0,0,0,1-3.75,29.35,29.35,0,0,0,.38-4.13q.09-2.1.09-4.17A146,146,0,0,0,174,17.81Q173.25,10.4,172.69,3l21.47-1.41Q195.57,16.22,195.56,30.84Zm56.49.75a60.48,60.48,0,0,1-.56,8.16q-8,.51-15.94,1.69L219.7,43.69a11.79,11.79,0,0,0,3.8,5.39,10,10,0,0,0,6.24,2,13.34,13.34,0,0,0,4.07-.7,35.43,35.43,0,0,0,4.46-1.74c1.47-.71,2.87-1.48,4.22-2.29s2.5-1.55,3.46-2.21L243.7,65.44a20.6,20.6,0,0,1-4,2.39,27.19,27.19,0,0,1-4.41,1.59,33.32,33.32,0,0,1-4.64.89,37.93,37.93,0,0,1-4.59.28,27.1,27.1,0,0,1-8.48-1.26,25.78,25.78,0,0,1-7-3.52,27.23,27.23,0,0,1-5.44-5.39,31.3,31.3,0,0,1-3.89-6.75,39.15,39.15,0,0,1-2.34-7.73,43,43,0,0,1-.8-8.25,48.44,48.44,0,0,1,.8-8.72,44.4,44.4,0,0,1,2.39-8.39,36.06,36.06,0,0,1,4.08-7.46,29.51,29.51,0,0,1,5.76-6,25.53,25.53,0,0,1,7.41-4,27.72,27.72,0,0,1,9.19-1.46,23.34,23.34,0,0,1,7.59,1.17A20.23,20.23,0,0,1,241.5,6a20.89,20.89,0,0,1,4.69,4.83A26.51,26.51,0,0,1,249.47,17,33.43,33.43,0,0,1,251.39,24,43,43,0,0,1,252.05,31.59ZM233.3,29.15a13.77,13.77,0,0,0-.28-2.67,8.13,8.13,0,0,0-.94-2.53,5.16,5.16,0,0,0-1.64-1.83,4.28,4.28,0,0,0-2.58-.75,5.67,5.67,0,0,0-3.33,1,9.37,9.37,0,0,0-2.43,2.54,14.73,14.73,0,0,0-1.69,3.28,24.63,24.63,0,0,0-1,3.28l13.88-1.31ZM56,132.78a14.4,14.4,0,0,1-1.45,6.7,14.56,14.56,0,0,1-3.8,4.78,20.91,20.91,0,0,1-5.53,3.24,40,40,0,0,1-6.47,1.92,50.54,50.54,0,0,1-6.8.94q-3.37.22-6.32.23t-6.05-.23a59.24,59.24,0,0,1-6.19-.71,54.68,54.68,0,0,1-6.09-1.36,35.29,35.29,0,0,1-5.67-2.2L1.5,85.72a54.4,54.4,0,0,1,5.58-1.93,58.24,58.24,0,0,1,6-1.45q3.09-.6,6.14-.89a54.86,54.86,0,0,1,5.91-.33,54.17,54.17,0,0,1,6.7.42A37.43,37.43,0,0,1,38.39,83a28.38,28.38,0,0,1,5.86,2.58A18.42,18.42,0,0,1,49,89.37a16.52,16.52,0,0,1,3.18,5.35,19.5,19.5,0,0,1,1.18,7,15.75,15.75,0,0,1-.75,4.92,13.5,13.5,0,0,1-2.16,4.12A13.93,13.93,0,0,1,47,113.94a15.4,15.4,0,0,1-4.55,1.87A19.86,19.86,0,0,1,48,118.15a16.32,16.32,0,0,1,7,8.72A17.7,17.7,0,0,1,56,132.78ZM32.16,106.06a4.45,4.45,0,0,0-.56-2.3,5.17,5.17,0,0,0-1.41-1.59,5.32,5.32,0,0,0-1.78-.89,5.89,5.89,0,0,0-1.69-.28,6,6,0,0,0-1.83.28,17.13,17.13,0,0,0-1.73.66l-.28,10.4a22.43,22.43,0,0,0,2.67-.19,11.32,11.32,0,0,0,3.05-.79,7,7,0,0,0,2.53-1.88A5.28,5.28,0,0,0,32.16,106.06ZM25.5,121.34a12.52,12.52,0,0,0-2.62.28l-.19,10.69,1.36.28a10.76,10.76,0,0,0,1.36.1,14.35,14.35,0,0,0,2.15-.19,7,7,0,0,0,2.21-.85,5.14,5.14,0,0,0,2.39-4.59,5.41,5.41,0,0,0-.71-2.91,4.8,4.8,0,0,0-1.64-1.73,5.21,5.21,0,0,0-2.15-.84A10.8,10.8,0,0,0,25.5,121.34Zm77.39-39.47q-.28,4.41-.51,8.72c-.16,2.88-.36,5.78-.61,8.72l-19.88,1-.47,5.91h14l-1,14.53-14.06.47-.47,6.84H99.7c-.18,3.44-.39,6.86-.6,10.27s-.36,6.76-.52,10.17l-40.41.94,1.5-67.6Zm60.75,63.57-23.25,3-2.81-10.6H126.89l-2.34,10.6-23.91-2.35L119.3,83.65l26.06-1.31ZM135.89,123.5l-3.56-16.31-3.47,16.31Zm72.75-41.06-.47,19.87-14,.56-3.56,44.44-19.78,1L171,103.9l-14,.75.56-22.12Zm50.58,42.09A26.39,26.39,0,0,1,257,135.78a22.15,22.15,0,0,1-6.09,8,26,26,0,0,1-9,4.78,37.53,37.53,0,0,1-11.11,1.59,23.41,23.41,0,0,1-5.06-.61c-1.81-.4-3.66-.9-5.53-1.5s-3.69-1.28-5.44-2-3.25-1.39-4.59-2l2.06-19.31a33.43,33.43,0,0,0,8.81,3.65,39,39,0,0,0,9.56,1.22c.6,0,1.32,0,2.16-.05a11.36,11.36,0,0,0,2.39-.42,5.42,5.42,0,0,0,2-1.08,2.53,2.53,0,0,0,.8-2,2.13,2.13,0,0,0-.57-1.5,3.79,3.79,0,0,0-1.45-1,7.47,7.47,0,0,0-2-.61,17.48,17.48,0,0,0-2.2-.33q-1.08-.09-2-.09h-1.5a18.64,18.64,0,0,1-7.36-1.41,17.21,17.21,0,0,1-5.68-3.89,18.28,18.28,0,0,1-3.65-6,21,21,0,0,1-1.31-7.5,21.58,21.58,0,0,1,2.2-9.89,23.14,23.14,0,0,1,5.95-7.46,27,27,0,0,1,8.58-4.73,30.67,30.67,0,0,1,10-1.64c1.54,0,3.11.06,4.74.19a41.29,41.29,0,0,1,4.83.56,44.61,44.61,0,0,1,4.73,1.08,26.68,26.68,0,0,1,4.36,1.64l-1.78,19a54.25,54.25,0,0,0-6.7-1.78,32.18,32.18,0,0,0-6.8-.75c-.41,0-.94,0-1.59,0a16.35,16.35,0,0,0-2,.14,20.44,20.44,0,0,0-2.11.33,8.32,8.32,0,0,0-1.92.66,3.46,3.46,0,0,0-1.36,1,2.26,2.26,0,0,0-.47,1.55,2.33,2.33,0,0,0,.75,1.68,5.86,5.86,0,0,0,1.88,1,15.59,15.59,0,0,0,2.53.47c.93.09,1.86.15,2.76.18h2.53a12.65,12.65,0,0,1,1.93,0,19.12,19.12,0,0,1,6.75,1.6,15.31,15.31,0,0,1,5.06,3.6,14.88,14.88,0,0,1,3.19,5.4A19.87,19.87,0,0,1,259.22,124.53Z"/><path class="cls-3" d="M58.24,2.7c-.19,2.94-.36,5.84-.52,8.72s-.36,5.78-.61,8.72l-19.87,1v5.91H54.49l-.94,14.53-16.41.47.1,27.75-23.72.46L15,2.7Zm43.59,40.88-2,20.81L60.39,67.48Q60.68,51.13,61,35t.89-32.53H86.27Q85.19,12.68,84.2,23T82.8,43.58c1.47.06,2.92.09,4.36.09h4.36c1.75,0,3.47,0,5.15-.05S100.08,43.58,101.83,43.58Zm54.51-11.16a58.89,58.89,0,0,1-.56,8.16q-8,.51-15.94,1.68L124,44.51a11.66,11.66,0,0,0,3.8,5.39,9.9,9.9,0,0,0,6.23,2,13.45,13.45,0,0,0,4.08-.7,35.3,35.3,0,0,0,4.45-1.74q2.2-1.08,4.22-2.29c1.35-.82,2.5-1.55,3.47-2.21L148,66.26a20.21,20.21,0,0,1-4,2.39,26.64,26.64,0,0,1-4.41,1.6,35.15,35.15,0,0,1-4.64.89,37.93,37.93,0,0,1-4.59.28,26.82,26.82,0,0,1-8.49-1.27,25.55,25.55,0,0,1-7-3.51,26.72,26.72,0,0,1-5.44-5.39,31.3,31.3,0,0,1-3.89-6.75,39,39,0,0,1-2.34-7.74,42.26,42.26,0,0,1-.8-8.25,47.71,47.71,0,0,1,.8-8.72,44.08,44.08,0,0,1,2.39-8.39A36.69,36.69,0,0,1,109.7,14a29.61,29.61,0,0,1,5.77-6,26,26,0,0,1,7.41-4,27.71,27.71,0,0,1,9.18-1.45,23.4,23.4,0,0,1,7.6,1.17,20,20,0,0,1,6.14,3.19,20.9,20.9,0,0,1,4.69,4.83,26.82,26.82,0,0,1,3.28,6.18,34.77,34.77,0,0,1,1.92,7.08A43,43,0,0,1,156.34,32.42ZM137.59,30a13,13,0,0,0-.28-2.67,8.12,8.12,0,0,0-.93-2.53A5.26,5.26,0,0,0,134.74,23a4.28,4.28,0,0,0-2.58-.75,5.6,5.6,0,0,0-3.33,1,9.51,9.51,0,0,0-2.44,2.53A15,15,0,0,0,124.7,29a26.67,26.67,0,0,0-1,3.29L137.59,31Zm63.33,1.69v5.48a53.55,53.55,0,0,1-.28,5.49,40.87,40.87,0,0,1-2.53,11.11,30.18,30.18,0,0,1-5.48,9.14,25,25,0,0,1-8.35,6.23A26.41,26.41,0,0,1,173,71.42a34.13,34.13,0,0,1-5.21-.42,36.92,36.92,0,0,1-5.34-1.27,35.51,35.51,0,0,1-5.06-2.06,21.67,21.67,0,0,1-4.27-2.91L156,45.36a24.78,24.78,0,0,0,6.14,4.36,16.65,16.65,0,0,0,7.36,1.64,11.25,11.25,0,0,0,4.36-.75,8.1,8.1,0,0,0,3-2.07,9.71,9.71,0,0,0,1.83-3,16.68,16.68,0,0,0,1-3.75,29.48,29.48,0,0,0,.38-4.13q.09-2.1.09-4.17a145.85,145.85,0,0,0-.75-14.81q-.75-7.41-1.31-14.81l21.47-1.41Q200.91,17,200.92,31.67Zm56.49.75a58.91,58.91,0,0,1-.57,8.16q-8,.51-15.93,1.68l-15.85,2.25a11.74,11.74,0,0,0,3.8,5.39,9.9,9.9,0,0,0,6.23,2,13.45,13.45,0,0,0,4.08-.7,35.43,35.43,0,0,0,4.46-1.74c1.46-.72,2.87-1.48,4.21-2.29s2.5-1.55,3.47-2.21l-2.25,21.28a19.92,19.92,0,0,1-4,2.39,26.64,26.64,0,0,1-4.41,1.6,35.15,35.15,0,0,1-4.64.89,37.93,37.93,0,0,1-4.59.28A26.87,26.87,0,0,1,223,70.15a25.55,25.55,0,0,1-7-3.51,27,27,0,0,1-5.44-5.39,31.3,31.3,0,0,1-3.89-6.75,39,39,0,0,1-2.34-7.74,43,43,0,0,1-.8-8.25,48.61,48.61,0,0,1,.8-8.72,44.83,44.83,0,0,1,2.39-8.39A36.25,36.25,0,0,1,210.77,14a29.3,29.3,0,0,1,5.76-6,26,26,0,0,1,7.41-4,27.72,27.72,0,0,1,9.19-1.45,23.34,23.34,0,0,1,7.59,1.17,20,20,0,0,1,6.14,3.19,20.7,20.7,0,0,1,4.69,4.83,26.44,26.44,0,0,1,3.28,6.18,34.77,34.77,0,0,1,1.92,7.08A43,43,0,0,1,257.41,32.42ZM238.66,30a13.77,13.77,0,0,0-.28-2.67,8.13,8.13,0,0,0-.94-2.53A5.16,5.16,0,0,0,235.8,23a4.28,4.28,0,0,0-2.58-.75,5.6,5.6,0,0,0-3.33,1,9.51,9.51,0,0,0-2.44,2.53A14.92,14.92,0,0,0,225.77,29a25.19,25.19,0,0,0-1,3.29L238.66,31ZM61.33,133.61a14.26,14.26,0,0,1-5.25,11.48,21.19,21.19,0,0,1-5.53,3.24,40,40,0,0,1-6.47,1.92,50.54,50.54,0,0,1-6.8.94q-3.37.23-6.33.23c-1.93,0-3.95-.08-6-.23a58.94,58.94,0,0,1-6.19-.71,54.68,54.68,0,0,1-6.09-1.36A36.76,36.76,0,0,1,7,146.92L6.86,86.54a56.92,56.92,0,0,1,5.58-1.92,55.76,55.76,0,0,1,6-1.45,60.16,60.16,0,0,1,6.14-.89A54.86,54.86,0,0,1,30.49,82a54.29,54.29,0,0,1,6.7.42,36.55,36.55,0,0,1,6.56,1.41,28.09,28.09,0,0,1,5.86,2.58,18.21,18.21,0,0,1,4.73,3.84,16.32,16.32,0,0,1,3.19,5.34,19.6,19.6,0,0,1,1.17,7A15.75,15.75,0,0,1,58,107.5a13.45,13.45,0,0,1-5.57,7.26,15.15,15.15,0,0,1-4.55,1.88A20,20,0,0,1,53.36,119a16.25,16.25,0,0,1,7,8.72A17.37,17.37,0,0,1,61.33,133.61ZM37.52,106.89a4.36,4.36,0,0,0-.57-2.3,4.92,4.92,0,0,0-1.4-1.59,5.14,5.14,0,0,0-1.78-.89,5.66,5.66,0,0,0-3.52,0,15,15,0,0,0-1.73.65l-.28,10.41a22.71,22.71,0,0,0,2.67-.19,11.16,11.16,0,0,0,3-.79,7,7,0,0,0,2.54-1.88A5.28,5.28,0,0,0,37.52,106.89Zm-6.66,15.28a11.82,11.82,0,0,0-2.62.28l-.19,10.69,1.36.28a10.7,10.7,0,0,0,1.36.09,14.26,14.26,0,0,0,2.15-.18,7.09,7.09,0,0,0,2.21-.85,5.25,5.25,0,0,0,1.68-1.73,5.15,5.15,0,0,0,.71-2.86,5.41,5.41,0,0,0-.71-2.91,4.72,4.72,0,0,0-1.64-1.73A5.36,5.36,0,0,0,33,122.4,11.53,11.53,0,0,0,30.86,122.17ZM108.25,82.7c-.19,2.94-.36,5.84-.51,8.72s-.36,5.78-.61,8.72l-19.88,1-.47,5.91h14l-1,14.53-14.06.47-.47,6.84h19.87c-.18,3.44-.39,6.86-.61,10.27s-.36,6.76-.51,10.17l-40.41.93L65,82.7ZM169,146.26l-23.25,3-2.81-10.59H132.25l-2.34,10.59L106,146.92l18.66-62.44,26.06-1.31Zm-27.75-21.93L137.69,108l-3.47,16.32ZM214,83.26l-.47,19.88-14,.56L196,148.14l-19.78,1,.09-44.44-14,.75.57-22.12Zm50.58,42.1a26.39,26.39,0,0,1-2.25,11.25,22.24,22.24,0,0,1-6.09,8,26.13,26.13,0,0,1-9.05,4.78A37.53,37.53,0,0,1,236.08,151a23.41,23.41,0,0,1-5.06-.61q-2.73-.6-5.53-1.5t-5.44-2q-2.58-1.08-4.6-2l2.07-19.32a33.12,33.12,0,0,0,8.81,3.66,39.47,39.47,0,0,0,9.56,1.22c.6,0,1.31,0,2.16,0a11.36,11.36,0,0,0,2.39-.42,5.42,5.42,0,0,0,2-1.08,2.54,2.54,0,0,0,.79-2,2.08,2.08,0,0,0-.56-1.5,3.79,3.79,0,0,0-1.45-1,7.23,7.23,0,0,0-2-.61,17.48,17.48,0,0,0-2.2-.33c-.72-.06-1.39-.1-2-.1h-1.5a18.71,18.71,0,0,1-7.36-1.4,17.42,17.42,0,0,1-5.67-3.89,18.22,18.22,0,0,1-3.65-6,20.89,20.89,0,0,1-1.32-7.5,21.64,21.64,0,0,1,2.21-9.89,23.21,23.21,0,0,1,6-7.45,27,27,0,0,1,8.58-4.73,30.67,30.67,0,0,1,10-1.64q2.29,0,4.74.18a41.31,41.31,0,0,1,4.83.57,47.21,47.21,0,0,1,4.73,1.07,29,29,0,0,1,4.36,1.64l-1.78,19a53.94,53.94,0,0,0-6.71-1.79,32,32,0,0,0-6.79-.75c-.41,0-.94,0-1.6,0a16.33,16.33,0,0,0-2,.14,16.16,16.16,0,0,0-2.11.33,8.32,8.32,0,0,0-1.92.66,3.39,3.39,0,0,0-1.36,1,2.2,2.2,0,0,0-.47,1.54,2.36,2.36,0,0,0,.75,1.69,5.81,5.81,0,0,0,1.87,1,15.92,15.92,0,0,0,2.54.47q1.39.14,2.76.18h2.53a12.51,12.51,0,0,1,1.92,0,19.33,19.33,0,0,1,6.75,1.59,15.52,15.52,0,0,1,5.07,3.61,14.76,14.76,0,0,1,3.18,5.39A20,20,0,0,1,264.58,125.36Z"/><path class="cls-2" d="M58.24,2.7c-.19,2.94-.36,5.84-.52,8.72s-.36,5.78-.61,8.72l-19.87,1v5.91H54.49l-.94,14.53-16.41.47.1,27.75-23.72.46L15,2.7Zm43.59,40.88-2,20.81L60.39,67.48Q60.68,51.13,61,35t.89-32.53H86.27Q85.19,12.68,84.2,23T82.8,43.58c1.47.06,2.92.09,4.36.09h4.36c1.75,0,3.47,0,5.15-.05S100.08,43.58,101.83,43.58Zm54.51-11.16a58.89,58.89,0,0,1-.56,8.16q-8,.51-15.94,1.68L124,44.51a11.66,11.66,0,0,0,3.8,5.39,9.9,9.9,0,0,0,6.23,2,13.45,13.45,0,0,0,4.08-.7,35.3,35.3,0,0,0,4.45-1.74q2.2-1.08,4.22-2.29c1.35-.82,2.5-1.55,3.47-2.21L148,66.26a20.21,20.21,0,0,1-4,2.39,26.64,26.64,0,0,1-4.41,1.6,35.15,35.15,0,0,1-4.64.89,37.93,37.93,0,0,1-4.59.28,26.82,26.82,0,0,1-8.49-1.27,25.55,25.55,0,0,1-7-3.51,26.72,26.72,0,0,1-5.44-5.39,31.3,31.3,0,0,1-3.89-6.75,39,39,0,0,1-2.34-7.74,42.26,42.26,0,0,1-.8-8.25,47.71,47.71,0,0,1,.8-8.72,44.08,44.08,0,0,1,2.39-8.39A36.69,36.69,0,0,1,109.7,14a29.61,29.61,0,0,1,5.77-6,26,26,0,0,1,7.41-4,27.71,27.71,0,0,1,9.18-1.45,23.4,23.4,0,0,1,7.6,1.17,20,20,0,0,1,6.14,3.19,20.9,20.9,0,0,1,4.69,4.83,26.82,26.82,0,0,1,3.28,6.18,34.77,34.77,0,0,1,1.92,7.08A43,43,0,0,1,156.34,32.42ZM137.59,30a13,13,0,0,0-.28-2.67,8.12,8.12,0,0,0-.93-2.53A5.26,5.26,0,0,0,134.74,23a4.28,4.28,0,0,0-2.58-.75,5.6,5.6,0,0,0-3.33,1,9.51,9.51,0,0,0-2.44,2.53A15,15,0,0,0,124.7,29a26.67,26.67,0,0,0-1,3.29L137.59,31Zm63.33,1.69v5.48a53.55,53.55,0,0,1-.28,5.49,40.87,40.87,0,0,1-2.53,11.11,30.18,30.18,0,0,1-5.48,9.14,25,25,0,0,1-8.35,6.23A26.41,26.41,0,0,1,173,71.42a34.13,34.13,0,0,1-5.21-.42,36.92,36.92,0,0,1-5.34-1.27,35.51,35.51,0,0,1-5.06-2.06,21.67,21.67,0,0,1-4.27-2.91L156,45.36a24.78,24.78,0,0,0,6.14,4.36,16.65,16.65,0,0,0,7.36,1.64,11.25,11.25,0,0,0,4.36-.75,8.1,8.1,0,0,0,3-2.07,9.71,9.71,0,0,0,1.83-3,16.68,16.68,0,0,0,1-3.75,29.48,29.48,0,0,0,.38-4.13q.09-2.1.09-4.17a145.85,145.85,0,0,0-.75-14.81q-.75-7.41-1.31-14.81l21.47-1.41Q200.91,17,200.92,31.67Zm56.49.75a58.91,58.91,0,0,1-.57,8.16q-8,.51-15.93,1.68l-15.85,2.25a11.74,11.74,0,0,0,3.8,5.39,9.9,9.9,0,0,0,6.23,2,13.45,13.45,0,0,0,4.08-.7,35.43,35.43,0,0,0,4.46-1.74c1.46-.72,2.87-1.48,4.21-2.29s2.5-1.55,3.47-2.21l-2.25,21.28a19.92,19.92,0,0,1-4,2.39,26.64,26.64,0,0,1-4.41,1.6,35.15,35.15,0,0,1-4.64.89,37.93,37.93,0,0,1-4.59.28A26.87,26.87,0,0,1,223,70.15a25.55,25.55,0,0,1-7-3.51,27,27,0,0,1-5.44-5.39,31.3,31.3,0,0,1-3.89-6.75,39,39,0,0,1-2.34-7.74,43,43,0,0,1-.8-8.25,48.61,48.61,0,0,1,.8-8.72,44.83,44.83,0,0,1,2.39-8.39A36.25,36.25,0,0,1,210.77,14a29.3,29.3,0,0,1,5.76-6,26,26,0,0,1,7.41-4,27.72,27.72,0,0,1,9.19-1.45,23.34,23.34,0,0,1,7.59,1.17,20,20,0,0,1,6.14,3.19,20.7,20.7,0,0,1,4.69,4.83,26.44,26.44,0,0,1,3.28,6.18,34.77,34.77,0,0,1,1.92,7.08A43,43,0,0,1,257.41,32.42ZM238.66,30a13.77,13.77,0,0,0-.28-2.67,8.13,8.13,0,0,0-.94-2.53A5.16,5.16,0,0,0,235.8,23a4.28,4.28,0,0,0-2.58-.75,5.6,5.6,0,0,0-3.33,1,9.51,9.51,0,0,0-2.44,2.53A14.92,14.92,0,0,0,225.77,29a25.19,25.19,0,0,0-1,3.29L238.66,31ZM61.33,133.61a14.26,14.26,0,0,1-5.25,11.48,21.19,21.19,0,0,1-5.53,3.24,40,40,0,0,1-6.47,1.92,50.54,50.54,0,0,1-6.8.94q-3.37.23-6.33.23c-1.93,0-3.95-.08-6-.23a58.94,58.94,0,0,1-6.19-.71,54.68,54.68,0,0,1-6.09-1.36A36.76,36.76,0,0,1,7,146.92L6.86,86.54a56.92,56.92,0,0,1,5.58-1.92,55.76,55.76,0,0,1,6-1.45,60.16,60.16,0,0,1,6.14-.89A54.86,54.86,0,0,1,30.49,82a54.29,54.29,0,0,1,6.7.42,36.55,36.55,0,0,1,6.56,1.41,28.09,28.09,0,0,1,5.86,2.58,18.21,18.21,0,0,1,4.73,3.84,16.32,16.32,0,0,1,3.19,5.34,19.6,19.6,0,0,1,1.17,7A15.75,15.75,0,0,1,58,107.5a13.45,13.45,0,0,1-5.57,7.26,15.15,15.15,0,0,1-4.55,1.88A20,20,0,0,1,53.36,119a16.25,16.25,0,0,1,7,8.72A17.37,17.37,0,0,1,61.33,133.61ZM37.52,106.89a4.36,4.36,0,0,0-.57-2.3,4.92,4.92,0,0,0-1.4-1.59,5.14,5.14,0,0,0-1.78-.89,5.66,5.66,0,0,0-3.52,0,15,15,0,0,0-1.73.65l-.28,10.41a22.71,22.71,0,0,0,2.67-.19,11.16,11.16,0,0,0,3-.79,7,7,0,0,0,2.54-1.88A5.28,5.28,0,0,0,37.52,106.89Zm-6.66,15.28a11.82,11.82,0,0,0-2.62.28l-.19,10.69,1.36.28a10.7,10.7,0,0,0,1.36.09,14.26,14.26,0,0,0,2.15-.18,7.09,7.09,0,0,0,2.21-.85,5.25,5.25,0,0,0,1.68-1.73,5.15,5.15,0,0,0,.71-2.86,5.41,5.41,0,0,0-.71-2.91,4.72,4.72,0,0,0-1.64-1.73A5.36,5.36,0,0,0,33,122.4,11.53,11.53,0,0,0,30.86,122.17ZM108.25,82.7c-.19,2.94-.36,5.84-.51,8.72s-.36,5.78-.61,8.72l-19.88,1-.47,5.91h14l-1,14.53-14.06.47-.47,6.84h19.87c-.18,3.44-.39,6.86-.61,10.27s-.36,6.76-.51,10.17l-40.41.93L65,82.7ZM169,146.26l-23.25,3-2.81-10.59H132.25l-2.34,10.59L106,146.92l18.66-62.44,26.06-1.31Zm-27.75-21.93L137.69,108l-3.47,16.32ZM214,83.26l-.47,19.88-14,.56L196,148.14l-19.78,1,.09-44.44-14,.75.57-22.12Zm50.58,42.1a26.39,26.39,0,0,1-2.25,11.25,22.24,22.24,0,0,1-6.09,8,26.13,26.13,0,0,1-9.05,4.78A37.53,37.53,0,0,1,236.08,151a23.41,23.41,0,0,1-5.06-.61q-2.73-.6-5.53-1.5t-5.44-2q-2.58-1.08-4.6-2l2.07-19.32a33.12,33.12,0,0,0,8.81,3.66,39.47,39.47,0,0,0,9.56,1.22c.6,0,1.31,0,2.16,0a11.36,11.36,0,0,0,2.39-.42,5.42,5.42,0,0,0,2-1.08,2.54,2.54,0,0,0,.79-2,2.08,2.08,0,0,0-.56-1.5,3.79,3.79,0,0,0-1.45-1,7.23,7.23,0,0,0-2-.61,17.48,17.48,0,0,0-2.2-.33c-.72-.06-1.39-.1-2-.1h-1.5a18.71,18.71,0,0,1-7.36-1.4,17.42,17.42,0,0,1-5.67-3.89,18.22,18.22,0,0,1-3.65-6,20.89,20.89,0,0,1-1.32-7.5,21.64,21.64,0,0,1,2.21-9.89,23.21,23.21,0,0,1,6-7.45,27,27,0,0,1,8.58-4.73,30.67,30.67,0,0,1,10-1.64q2.29,0,4.74.18a41.31,41.31,0,0,1,4.83.57,47.21,47.21,0,0,1,4.73,1.07,29,29,0,0,1,4.36,1.64l-1.78,19a53.94,53.94,0,0,0-6.71-1.79,32,32,0,0,0-6.79-.75c-.41,0-.94,0-1.6,0a16.33,16.33,0,0,0-2,.14,16.16,16.16,0,0,0-2.11.33,8.32,8.32,0,0,0-1.92.66,3.39,3.39,0,0,0-1.36,1,2.2,2.2,0,0,0-.47,1.54,2.36,2.36,0,0,0,.75,1.69,5.81,5.81,0,0,0,1.87,1,15.92,15.92,0,0,0,2.54.47q1.39.14,2.76.18h2.53a12.51,12.51,0,0,1,1.92,0,19.33,19.33,0,0,1,6.75,1.59,15.52,15.52,0,0,1,5.07,3.61,14.76,14.76,0,0,1,3.18,5.39A20,20,0,0,1,264.58,125.36Z"/></g></g></svg>