<svg xmlns="http://www.w3.org/2000/svg" viewBox="0 0 276 276"><defs><style>.cls-1{fill:none;stroke:#fff;stroke-miterlimit:10;stroke-width:6px;}.cls-2{fill:#fff;}</style></defs><title>logoWhite</title><g id="Capa_2" data-name="Capa 2"><g id="Capa_1-2" data-name="Capa 1"><circle class="cls-1" cx="138" cy="138" r="135"/><path class="cls-2" d="M60.52,63.78q-.29,4.41-.52,8.72c-.16,2.88-.36,5.78-.61,8.72l-19.87,1v5.91H56.77l-.94,14.53-16.41.47.1,27.75-23.72.47,1.5-67.6Zm43.59,40.88-2,20.81-39.47,3.09Q63,112.21,63.28,96t.89-32.53H88.55Q87.47,73.76,86.48,84t-1.4,20.63c1.47.06,2.92.09,4.36.09H93.8c1.75,0,3.47,0,5.15,0S102.36,104.66,104.11,104.66ZM158.62,93.5a58.89,58.89,0,0,1-.56,8.16q-8,.51-15.94,1.68l-15.84,2.25a11.66,11.66,0,0,0,3.8,5.39,9.9,9.9,0,0,0,6.23,2,13.45,13.45,0,0,0,4.08-.7,35.3,35.3,0,0,0,4.45-1.74q2.21-1.08,4.22-2.29c1.35-.82,2.5-1.55,3.47-2.21l-2.25,21.28a20.21,20.21,0,0,1-4,2.39,26.64,26.64,0,0,1-4.41,1.6,35.15,35.15,0,0,1-4.64.89,37.93,37.93,0,0,1-4.59.28,26.82,26.82,0,0,1-8.49-1.27,25.55,25.55,0,0,1-7-3.51,26.72,26.72,0,0,1-5.44-5.39,31.3,31.3,0,0,1-3.89-6.75,39,39,0,0,1-2.34-7.74,42.11,42.11,0,0,1-.8-8.25,47.52,47.52,0,0,1,.8-8.71,44,44,0,0,1,2.39-8.4A36.69,36.69,0,0,1,112,75a29.61,29.61,0,0,1,5.77-6,26,26,0,0,1,7.41-4,27.71,27.71,0,0,1,9.18-1.45,23.4,23.4,0,0,1,7.6,1.17,20,20,0,0,1,6.14,3.19,20.9,20.9,0,0,1,4.69,4.83,26.89,26.89,0,0,1,3.28,6.19A34.5,34.5,0,0,1,158,86,43,43,0,0,1,158.62,93.5Zm-18.75-2.44a13,13,0,0,0-.28-2.67,8.12,8.12,0,0,0-.93-2.53A5.26,5.26,0,0,0,137,84a4.28,4.28,0,0,0-2.58-.75,5.67,5.67,0,0,0-3.33,1,9.51,9.51,0,0,0-2.44,2.53A14.8,14.8,0,0,0,127,90.13a26.06,26.06,0,0,0-1,3.28l13.87-1.32Zm63.33,1.69v5.48a53.4,53.4,0,0,1-.28,5.49,40.79,40.79,0,0,1-2.53,11.11,30.18,30.18,0,0,1-5.48,9.14,25,25,0,0,1-8.35,6.23,26.41,26.41,0,0,1-11.29,2.3,34.13,34.13,0,0,1-5.21-.42,35.8,35.8,0,0,1-10.4-3.33,21.67,21.67,0,0,1-4.27-2.91l2.91-19.4a24.78,24.78,0,0,0,6.14,4.36,16.65,16.65,0,0,0,7.36,1.64,11.25,11.25,0,0,0,4.36-.75,8.2,8.2,0,0,0,3-2.06,9.88,9.88,0,0,0,1.83-3,16.68,16.68,0,0,0,1-3.75,29.48,29.48,0,0,0,.38-4.13q.09-2.1.09-4.17a146,146,0,0,0-.75-14.81q-.75-7.41-1.31-14.81L201.8,63.5Q203.2,78.13,203.2,92.75Zm56.49.75a58.91,58.91,0,0,1-.57,8.16q-8,.51-15.93,1.68l-15.85,2.25a11.74,11.74,0,0,0,3.8,5.39,9.9,9.9,0,0,0,6.23,2,13.45,13.45,0,0,0,4.08-.7,35.43,35.43,0,0,0,4.46-1.74c1.46-.72,2.87-1.48,4.21-2.29s2.5-1.55,3.47-2.21l-2.25,21.28a19.92,19.92,0,0,1-4,2.39,26.64,26.64,0,0,1-4.41,1.6,35.15,35.15,0,0,1-4.64.89,37.93,37.93,0,0,1-4.59.28,26.87,26.87,0,0,1-8.49-1.27,25.55,25.55,0,0,1-7-3.51,27,27,0,0,1-5.44-5.39,31.3,31.3,0,0,1-3.89-6.75,39,39,0,0,1-2.34-7.74,42.89,42.89,0,0,1-.8-8.25,48.42,48.42,0,0,1,.8-8.71,44.71,44.71,0,0,1,2.39-8.4A36.25,36.25,0,0,1,213.05,75a29.3,29.3,0,0,1,5.76-6,26,26,0,0,1,7.41-4,27.72,27.72,0,0,1,9.19-1.45A23.34,23.34,0,0,1,243,64.67a20,20,0,0,1,6.14,3.19,20.7,20.7,0,0,1,4.69,4.83,26.51,26.51,0,0,1,3.28,6.19A34.5,34.5,0,0,1,259,86,43,43,0,0,1,259.69,93.5Zm-18.75-2.44a13.77,13.77,0,0,0-.28-2.67,8.13,8.13,0,0,0-.94-2.53A5.16,5.16,0,0,0,238.08,84a4.28,4.28,0,0,0-2.58-.75,5.67,5.67,0,0,0-3.33,1,9.51,9.51,0,0,0-2.44,2.53,14.77,14.77,0,0,0-1.68,3.29,24.63,24.63,0,0,0-1,3.28l13.88-1.32ZM63.61,194.69a14.26,14.26,0,0,1-5.25,11.48,21.19,21.19,0,0,1-5.53,3.24,40,40,0,0,1-6.47,1.92,50.54,50.54,0,0,1-6.8.94q-3.37.22-6.33.23c-1.93,0-3.95-.08-6-.23a58.94,58.94,0,0,1-6.19-.71,54.68,54.68,0,0,1-6.09-1.36A36.76,36.76,0,0,1,9.23,208l-.09-60.38a56.92,56.92,0,0,1,5.58-1.92,55.76,55.76,0,0,1,6-1.45,60.16,60.16,0,0,1,6.14-.89,54.86,54.86,0,0,1,5.91-.33,54.29,54.29,0,0,1,6.7.42A36.55,36.55,0,0,1,46,144.86a28.09,28.09,0,0,1,5.86,2.58,18.21,18.21,0,0,1,4.73,3.84,16.32,16.32,0,0,1,3.19,5.34,19.6,19.6,0,0,1,1.17,7,15.75,15.75,0,0,1-.75,4.92,13.45,13.45,0,0,1-5.57,7.26,15.15,15.15,0,0,1-4.55,1.88,20,20,0,0,1,5.53,2.34,16.25,16.25,0,0,1,7,8.72A17.37,17.37,0,0,1,63.61,194.69ZM39.8,168a4.36,4.36,0,0,0-.57-2.3,4.92,4.92,0,0,0-1.4-1.59,5.14,5.14,0,0,0-1.78-.89,5.66,5.66,0,0,0-3.52,0,15,15,0,0,0-1.73.65l-.28,10.41a22.71,22.71,0,0,0,2.67-.19,11.16,11.16,0,0,0,3-.79,7,7,0,0,0,2.54-1.88A5.28,5.28,0,0,0,39.8,168Zm-6.66,15.28a11.82,11.82,0,0,0-2.62.28l-.19,10.69,1.36.28a10.7,10.7,0,0,0,1.36.09,14.26,14.26,0,0,0,2.15-.18,7.09,7.09,0,0,0,2.21-.85,5.25,5.25,0,0,0,1.68-1.73A5.15,5.15,0,0,0,39.8,189a5.41,5.41,0,0,0-.71-2.91,4.72,4.72,0,0,0-1.64-1.73,5.36,5.36,0,0,0-2.15-.85A11.53,11.53,0,0,0,33.14,183.25Zm77.39-39.47c-.19,2.94-.36,5.84-.51,8.72s-.36,5.78-.61,8.72l-19.88,1-.47,5.91h14l-1,14.53-14.06.47L87.47,190h19.87c-.18,3.44-.39,6.86-.61,10.27s-.36,6.76-.51,10.17l-40.41.93,1.5-67.59Zm60.75,63.56-23.25,3-2.81-10.59H134.53l-2.34,10.59L108.28,208l18.66-62.44L153,144.25Zm-27.75-21.93L140,169.09l-3.47,16.32Zm72.75-41.07-.47,19.88-14,.56-3.56,44.44-19.78,1,.09-44.44-14,.75.57-22.12Zm50.58,42.1a26.39,26.39,0,0,1-2.25,11.25,22.24,22.24,0,0,1-6.09,8,26.13,26.13,0,0,1-9,4.78A37.53,37.53,0,0,1,238.36,212a23.41,23.41,0,0,1-5.06-.61q-2.73-.6-5.53-1.5t-5.44-2q-2.58-1.08-4.6-2l2.07-19.32a33.12,33.12,0,0,0,8.81,3.66,39.47,39.47,0,0,0,9.56,1.22c.6,0,1.31,0,2.16-.05a11.36,11.36,0,0,0,2.39-.42,5.42,5.42,0,0,0,2-1.08,2.54,2.54,0,0,0,.79-2,2.08,2.08,0,0,0-.56-1.5,3.79,3.79,0,0,0-1.45-1,7.23,7.23,0,0,0-2-.61,17.48,17.48,0,0,0-2.2-.33c-.72-.06-1.39-.1-2-.1h-1.5a18.71,18.71,0,0,1-7.36-1.4,17.42,17.42,0,0,1-5.67-3.89,18.22,18.22,0,0,1-3.65-6,20.89,20.89,0,0,1-1.32-7.5,21.64,21.64,0,0,1,2.21-9.89,23.21,23.21,0,0,1,5.95-7.45,27,27,0,0,1,8.58-4.73,30.67,30.67,0,0,1,10-1.64q2.3,0,4.74.18a41.31,41.31,0,0,1,4.83.57,47.21,47.21,0,0,1,4.73,1.07,29,29,0,0,1,4.36,1.64l-1.78,19a53.94,53.94,0,0,0-6.71-1.79,32,32,0,0,0-6.79-.75c-.41,0-.94,0-1.6,0a16.33,16.33,0,0,0-2,.14,16.16,16.16,0,0,0-2.11.33,8.32,8.32,0,0,0-1.92.66,3.39,3.39,0,0,0-1.36,1,2.2,2.2,0,0,0-.47,1.54,2.36,2.36,0,0,0,.75,1.69,5.81,5.81,0,0,0,1.87,1,15.92,15.92,0,0,0,2.54.47q1.39.14,2.76.18h2.53a12.51,12.51,0,0,1,1.92.05,19.33,19.33,0,0,1,6.75,1.59,15.52,15.52,0,0,1,5.07,3.61,14.76,14.76,0,0,1,3.18,5.39A20,20,0,0,1,266.86,186.44Z"/></g></g></svg>