<svg xmlns="http://www.w3.org/2000/svg" viewBox="0 0 165.1 196.39"><defs><style>.cls-1{fill:#5d4989;}.cls-1,.cls-2,.cls-4{stroke:#000;}.cls-1,.cls-2,.cls-4,.cls-6{stroke-miterlimit:10;stroke-width:2px;}.cls-2{fill:#9687cc;}.cls-3{fill:#a03c8d;}.cls-4{fill:#070005;}.cls-5{fill:#eff0ff;}.cls-6{fill:none;stroke:#020102;stroke-linecap:round;}</style></defs><title>Recurso 1</title><g id="Capa_2" data-name="Capa 2"><g id="Capa_1-2" data-name="Capa 1"><path class="cls-1" d="M156.58,33.19,106.37,8.39A13.46,13.46,0,0,0,87,18.76a13.53,13.53,0,0,0-1,5.13V100.2a50.49,50.49,0,1,0,27,44.69c0-.67,0-1.34,0-2,0-.33,0-.66,0-1V41.78L144.63,57.4a13.5,13.5,0,0,0,12-24.21Z"/><path class="cls-2" d="M145.58,27.19,95.37,2.39A13.46,13.46,0,0,0,76,12.76a13.53,13.53,0,0,0-1,5.13V94.2a50.49,50.49,0,1,0,27,44.69c0-.67,0-1.34,0-2,0-.33,0-.66,0-1V35.78L133.63,51.4a13.5,13.5,0,0,0,12-24.21Z"/><circle class="cls-3" cx="18.14" cy="132.53" r="7.42"/><circle class="cls-4" cx="29.59" cy="124.47" r="7.42"/><circle class="cls-3" cx="72.58" cy="137.32" r="7.42"/><circle class="cls-4" cx="66.16" cy="127.9" r="7.42"/><circle class="cls-5" cx="26.82" cy="119.81" r="2.11"/><circle class="cls-5" cx="63.13" cy="122.96" r="2.11"/><path class="cls-6" d="M51.41,133.41c-1,4.16-7,7.86-10.62-.63"/></g></g></svg>