<svg xmlns="http://www.w3.org/2000/svg" viewBox="0 0 102.33 106.23"><defs><style>.cls-1{fill:#cc89e7;}.cls-1,.cls-3,.cls-5{stroke:#020102;}.cls-1,.cls-3,.cls-4,.cls-5{stroke-miterlimit:10;stroke-width:2px;}.cls-2{fill:#c6667d;}.cls-3{fill:none;}.cls-3,.cls-4{stroke-linecap:round;}.cls-4{fill:#0a090a;stroke:#0a090a;}.cls-5{fill:#020102;}</style></defs><title>pedro_1</title><g id="Capa_2" data-name="Capa 2"><g id="Capa_1-2" data-name="Capa 1"><rect class="cls-1" x="1.69" y="14.1" width="96.19" height="91.13" rx="14.96"/><ellipse class="cls-2" cx="23.87" cy="61.34" rx="9.42" ry="5.77"/><ellipse class="cls-2" cx="75.99" cy="61.34" rx="9.42" ry="5.77"/><path class="cls-3" d="M54.58,70.78c-.83,3.84-3.85,8-7.42.32"/><line class="cls-4" x1="31.78" y1="45.29" x2="42.47" y2="54.48"/><line class="cls-4" x1="31.07" y1="62.75" x2="42.49" y2="54.49"/><line class="cls-4" x1="68.56" y1="63.75" x2="57.87" y2="54.56"/><line class="cls-4" x1="69.27" y1="46.29" x2="57.85" y2="54.55"/><ellipse class="cls-5" cx="85.78" cy="18.7" rx="10.88" ry="15.87" transform="translate(44.32 96.09) rotate(-74.12)"/><ellipse class="cls-5" cx="79.59" cy="15.14" rx="10.88" ry="15.87" transform="translate(43.25 87.55) rotate(-74.12)"/><ellipse class="cls-5" cx="38.53" cy="12.33" rx="10.88" ry="15.87" transform="translate(16.13 46.01) rotate(-74.12)"/><ellipse class="cls-5" cx="16.84" cy="17.27" rx="15.87" ry="10.88" transform="translate(-1.37 1.45) rotate(-4.74)"/><ellipse class="cls-5" cx="64.66" cy="17.73" rx="10.88" ry="15.87" transform="translate(29.91 75.07) rotate(-74.12)"/></g></g></svg>