<svg xmlns="http://www.w3.org/2000/svg" viewBox="0 0 74.27 86.06"><defs><style>.cls-1,.cls-5{fill:#a03c8d;}.cls-1{stroke:#000;}.cls-1,.cls-2,.cls-3,.cls-4{stroke-miterlimit:10;}.cls-1,.cls-2,.cls-3{stroke-width:2px;}.cls-2{fill:#d687ce;}.cls-2,.cls-3,.cls-4{stroke:#020102;}.cls-3,.cls-4{fill:none;stroke-linecap:round;}</style></defs><title>play</title><g id="Capa_2" data-name="Capa 2"><g id="Capa_1-2" data-name="Capa 1"><path class="cls-1" d="M2.3,44.68,2.48,8.36A4,4,0,0,1,8.54,4.9L39.91,23.21,71.28,41.53a4,4,0,0,1,0,7l-31.54,18-31.55,18a4,4,0,0,1-6-3.52Z"/><path class="cls-2" d="M1.18,41.34,1.36,5A4,4,0,0,1,7.42,1.56L38.78,19.87,70.15,38.19a4,4,0,0,1,0,7l-31.55,18L7,81.18a4,4,0,0,1-6-3.52Z"/><path class="cls-3" d="M15.12,39c1.06-3.78,4.34-7.75,7.43.14"/><path class="cls-4" d="M32.49,43c-.48,2-3.3,3.72-5-.3"/><path class="cls-3" d="M36.12,39c1.06-3.78,4.34-7.75,7.43.14"/><circle class="cls-5" cx="13.66" cy="43.32" r="3.27"/><circle class="cls-5" cx="44.66" cy="43.32" r="3.27"/></g></g></svg>