<svg xmlns="http://www.w3.org/2000/svg" viewBox="0 0 78.26 88.25"><defs><style>.cls-1,.cls-5{fill:#a03c8d;}.cls-1{stroke:#000;}.cls-1,.cls-2,.cls-3,.cls-4{stroke-miterlimit:10;}.cls-1,.cls-2,.cls-3{stroke-width:2px;}.cls-2{fill:#d687ce;}.cls-2,.cls-3,.cls-4{stroke:#020102;}.cls-3,.cls-4{fill:none;stroke-linecap:round;}</style></defs><title>play_2</title><g id="Capa_2" data-name="Capa 2"><g id="Capa_1-2" data-name="Capa 1"><path class="cls-1" d="M1.19,44.1,1.38,5.29a4.33,4.33,0,0,1,6.5-3.7L41.5,21.17,75.12,40.74a4.3,4.3,0,0,1,0,7.46L41.27,67.44,7.46,86.68A4.32,4.32,0,0,1,1,82.92Z"/><path class="cls-2" d="M6.08,43.64,6.26,7.32a4,4,0,0,1,6.06-3.46L43.68,22.17,75.05,40.49a4,4,0,0,1,0,7l-31.54,18-31.54,18A4,4,0,0,1,5.9,80Z"/><path class="cls-3" d="M20,41.34c1.06-3.78,4.34-7.75,7.43.14"/><path class="cls-4" d="M37.39,45.32c-.48,2-3.3,3.72-5-.3"/><path class="cls-3" d="M41,41.34c1.06-3.78,4.34-7.75,7.43.14"/><circle class="cls-5" cx="18.56" cy="45.62" r="3.27"/><circle class="cls-5" cx="49.56" cy="45.62" r="3.27"/></g></g></svg>