<svg xmlns="http://www.w3.org/2000/svg" viewBox="0 0 73.15 82.71"><defs><style>.cls-1{fill:#d687ce;}.cls-1,.cls-2,.cls-3{stroke:#020102;stroke-miterlimit:10;}.cls-1,.cls-2{stroke-width:2px;}.cls-2,.cls-3{fill:none;stroke-linecap:round;}.cls-4{fill:#a03c8d;}</style></defs><title>playHover</title><g id="Capa_2" data-name="Capa 2"><g id="Capa_1-2" data-name="Capa 1"><path class="cls-1" d="M1.18,41.34,1.36,5A4,4,0,0,1,7.42,1.56L38.78,19.87,70.15,38.19a4,4,0,0,1,0,7l-31.55,18L7,81.18a4,4,0,0,1-6-3.52Z"/><path class="cls-2" d="M15.12,39c1.06-3.78,4.34-7.75,7.43.14"/><path class="cls-3" d="M32.49,43c-.48,2-3.3,3.72-5-.3"/><path class="cls-2" d="M36.12,39c1.06-3.78,4.34-7.75,7.43.14"/><circle class="cls-4" cx="13.66" cy="43.32" r="3.27"/><circle class="cls-4" cx="44.66" cy="43.32" r="3.27"/></g></g></svg>